<?xml version="1.0" standalone="no"?>
<!DOCTYPE svg PUBLIC "-//W3C//DTD SVG 20010904//EN"
 "http://www.w3.org/TR/2001/REC-SVG-20010904/DTD/svg10.dtd">
<svg version="1.0" xmlns="http://www.w3.org/2000/svg"
 width="312.000000pt" height="330.000000pt" viewBox="0 0 312.000000 330.000000"
 preserveAspectRatio="xMidYMid meet">

<g transform="translate(0.000000,330.000000) scale(0.100000,-0.100000)"
fill="#000000" stroke="none">
<path d="M1418 2690 c3 -72 0 -145 -7 -181 -7 -34 -10 -63 -7 -66 2 -3 44 -1
93 4 l88 8 7 50 c4 27 5 51 2 54 -2 3 -20 -3 -39 -12 -63 -30 -65 -27 -65 71
0 50 7 110 15 138 8 27 15 50 15 52 0 1 -24 2 -53 2 l-53 0 4 -120z"/>
<path d="M1176 2774 c-50 -18 -50 -18 -37 -43 15 -27 61 -254 61 -297 0 -19 2
-34 5 -34 3 0 31 7 63 15 31 8 69 17 85 20 26 5 27 8 21 48 -10 70 -11 71 -45
43 -42 -35 -56 -33 -68 12 -15 57 -31 162 -31 210 0 47 1 46 -54 26z"/>
<path d="M1657 2728 c5 -65 -19 -215 -40 -249 -14 -23 -11 -25 41 -32 39 -5
44 -3 53 20 5 13 9 44 9 69 0 43 0 44 34 44 35 0 46 13 46 51 0 15 -7 19 -35
19 -33 0 -35 2 -35 35 0 46 19 53 66 26 20 -12 37 -21 38 -19 4 5 26 85 26 92
0 3 -47 6 -104 6 l-104 0 5 -62z"/>
<path d="M1936 2751 c-13 -25 -20 -30 -26 -20 -7 10 -12 6 -21 -15 -12 -26
-11 -30 10 -47 28 -23 74 -25 95 -3 18 17 21 44 6 44 -5 0 -10 7 -10 15 0 18
-19 20 -21 3 -1 -7 -5 3 -8 22 l-7 35 -18 -34z"/>
<path d="M951 2694 c-41 -19 -77 -36 -79 -39 -2 -2 7 -19 21 -37 28 -36 137
-255 137 -275 0 -6 4 -14 9 -18 10 -6 126 58 137 76 8 13 -15 69 -28 69 -6 0
-19 -11 -30 -25 -25 -32 -42 -32 -56 0 -17 37 -15 53 8 65 20 11 25 35 14 64
-8 20 -21 20 -40 1 -23 -23 -40 -18 -54 15 -14 35 -15 34 25 47 26 9 30 14 30
48 0 21 -4 40 -10 41 -5 1 -44 -13 -84 -32z"/>
<path d="M2090 2689 c0 -31 -86 -197 -138 -267 -14 -18 -23 -34 -21 -36 2 -2
19 -11 37 -20 33 -17 52 -14 52 8 0 22 59 106 75 106 29 0 27 -29 -4 -91 -17
-34 -30 -63 -29 -64 5 -3 71 -35 73 -35 1 0 8 28 14 63 15 76 33 105 77 123
59 25 85 113 44 154 -20 20 -152 90 -170 90 -5 0 -10 -14 -10 -31z m108 -79
c28 -27 16 -64 -22 -68 -52 -6 -59 3 -36 48 23 46 28 47 58 20z"/>
<path d="M1861 2583 c-6 -33 -25 -81 -41 -107 -17 -26 -30 -48 -30 -50 0 -8
92 -26 101 -21 5 4 9 19 9 34 0 44 27 121 51 147 27 29 19 41 -37 50 l-41 6
-12 -59z"/>
<path d="M761 2579 l-34 -40 30 -32 c17 -18 36 -43 43 -56 11 -21 10 -26 -11
-42 -13 -10 -29 -19 -35 -19 -14 0 -37 27 -58 68 -19 38 -28 39 -68 11 l-30
-21 30 -32 c49 -52 157 -199 171 -233 7 -18 16 -33 20 -33 4 0 22 15 39 33 29
30 31 35 17 47 -9 7 -30 31 -47 52 -29 37 -30 40 -13 58 29 32 53 24 85 -26
16 -26 31 -52 34 -58 3 -7 9 -5 15 5 6 9 24 22 41 29 28 12 41 30 21 30 -33 0
-188 206 -197 261 -4 21 -9 39 -13 38 -3 0 -21 -19 -40 -40z"/>
<path d="M2366 2517 c-11 -24 -61 -84 -119 -141 -89 -88 -97 -100 -81 -109 11
-6 41 -32 68 -59 l50 -48 33 32 c36 35 33 47 -17 68 -38 16 -38 29 1 66 l30
29 18 -24 18 -24 32 24 c38 28 39 36 6 51 -32 14 -32 31 2 58 l27 21 28 -30
c28 -30 29 -30 63 -14 19 9 35 21 34 27 0 14 -143 116 -161 116 -7 0 -22 -20
-32 -43z"/>
<path d="M1183 2241 c-64 -46 -88 -132 -63 -223 14 -49 63 -90 104 -86 28 3
31 7 37 46 l5 42 -32 -6 c-26 -5 -34 -2 -43 14 -27 50 0 152 40 152 21 0 24 5
33 58 5 28 3 32 -18 32 -13 0 -41 -13 -63 -29z"/>
<path d="M1655 2263 c-18 -3 -20 -12 -20 -111 -1 -109 -12 -152 -40 -152 -24
0 -34 64 -25 158 6 48 10 90 10 95 0 4 -19 7 -41 7 -41 0 -41 0 -35 -31 3 -17
6 -87 6 -155 l0 -123 30 -16 c47 -24 85 -19 114 16 14 17 26 34 26 37 0 29 30
251 35 265 7 17 -9 20 -60 10z"/>
<path d="M1790 2263 c-25 -4 -25 -4 -26 -116 -1 -66 -7 -134 -16 -164 l-15
-53 89 0 c81 0 91 2 113 24 32 32 41 71 27 120 -6 25 -7 47 -1 58 12 22 12 75
-1 98 -17 33 -86 46 -170 33z m104 -59 c9 -8 16 -20 16 -24 0 -15 -48 -42 -60
-35 -8 5 -9 51 -1 73 3 8 32 0 45 -14z m4 -156 c5 -24 -32 -62 -53 -55 -14 6
-16 14 -10 45 4 20 9 41 12 45 7 11 47 -17 51 -35z"/>
<path d="M1310 2123 c0 -76 -3 -148 -6 -160 -6 -22 -4 -23 74 -23 l79 0 6 48
c3 26 3 49 1 51 -2 2 -22 -3 -44 -12 -37 -14 -42 -14 -47 -1 -6 15 1 109 13
192 l7 42 -42 0 -41 0 0 -137z"/>
<path d="M2494 2171 c-92 -69 -87 -63 -82 -125 4 -47 10 -63 36 -89 26 -26 39
-31 79 -31 124 1 194 111 133 208 -21 35 -72 66 -108 66 -10 0 -37 -13 -58
-29z m96 -6 c33 -17 33 -17 24 -39 -4 -11 -18 -16 -43 -15 -31 2 -32 3 -8 6
37 6 33 37 -6 41 -15 2 -27 8 -27 13 0 14 27 11 60 -6z m-70 -26 c0 -6 -4 -7
-10 -4 -5 3 -10 11 -10 16 0 6 5 7 10 4 6 -3 10 -11 10 -16z m-20 -14 c13 -16
6 -60 -13 -87 -17 -21 -49 -27 -55 -9 -3 10 0 12 12 8 11 -5 16 -1 16 14 0 11
7 22 15 25 8 4 12 10 9 15 -3 5 -15 2 -28 -6 -34 -23 -40 -5 -9 26 33 33 37
34 53 14z m145 -4 c3 -5 1 -12 -5 -16 -5 -3 -10 1 -10 9 0 18 6 21 15 7z m-16
-63 c11 -30 10 -35 -14 -55 -33 -29 -57 -29 -91 0 -26 23 -26 24 -10 55 15 29
21 32 60 32 41 0 45 -3 55 -32z m-110 -74 c34 -28 39 -44 16 -44 -8 0 -22 14
-30 30 -13 25 -19 29 -35 20 -11 -6 -21 -6 -24 -1 -6 9 9 19 31 20 6 1 25 -11
42 -25z"/>
<path d="M556 2149 l-78 -40 6 -40 c18 -114 27 -139 49 -139 25 0 197 46 205
55 7 6 -62 152 -87 183 l-16 20 -79 -39z m80 -24 c-20 -31 -12 -49 19 -41 17
4 25 0 33 -20 15 -32 15 -35 -2 -28 -20 8 -30 -14 -15 -32 15 -18 13 -20 -30
-29 -28 -6 -33 -4 -28 7 3 8 1 21 -4 29 -8 11 -13 10 -29 -10 -11 -13 -20 -29
-20 -37 0 -8 -4 -14 -10 -14 -14 0 -15 -4 35 104 25 53 50 96 56 96 7 0 5 -10
-5 -25z m-66 -16 c9 -16 9 -28 0 -50 -19 -45 -70 -36 -70 13 0 6 7 7 16 4 12
-5 15 -2 10 10 -4 10 1 22 11 30 23 17 20 17 33 -7z"/>
<path d="M2122 2097 c-6 -7 -20 -38 -32 -69 -27 -73 -84 -137 -179 -200 -42
-29 -106 -80 -143 -116 l-67 -64 -86 17 c-96 19 -132 16 -213 -17 l-55 -23
-21 30 c-27 39 -158 170 -216 216 -61 48 -99 107 -114 171 -14 65 -35 70 -79
16 -35 -44 -45 -110 -27 -178 10 -37 30 -62 115 -145 102 -99 175 -197 194
-258 12 -40 23 -147 16 -147 -12 0 -107 106 -122 135 -32 62 -52 83 -74 78
-17 -5 -20 -11 -15 -37 18 -93 17 -144 -2 -226 l-20 -84 23 -28 c24 -29 45
-85 45 -123 0 -40 12 -63 35 -69 16 -4 35 -30 65 -88 40 -78 84 -138 101 -138
17 0 19 41 4 96 -17 65 -21 149 -5 123 5 -8 22 -71 39 -140 36 -152 64 -230
99 -271 27 -32 113 -78 146 -78 69 0 169 68 207 142 12 23 26 84 35 151 16
125 30 192 45 216 7 11 8 -5 4 -54 -12 -120 -12 -120 10 -120 14 0 31 22 63
85 46 90 75 127 106 139 17 7 19 17 18 67 -3 62 2 74 60 146 25 31 27 37 16
66 -10 25 -9 49 6 124 33 165 14 171 -110 38 -48 -52 -94 -99 -101 -103 -22
-13 -16 94 9 160 17 45 35 71 87 118 175 160 208 206 218 308 5 59 -15 120
-46 137 -25 13 -26 13 -39 -3z m-1162 -66 c0 -6 -4 -13 -10 -16 -5 -3 -10 1
-10 9 0 9 5 16 10 16 6 0 10 -4 10 -9z m1190 -37 c0 -9 -5 -14 -12 -12 -18 6
-21 28 -4 28 9 0 16 -7 16 -16z m-1190 -3 c0 -12 -20 -25 -27 -18 -7 7 6 27
18 27 5 0 9 -4 9 -9z m20 -35 c0 -7 -7 -19 -15 -26 -12 -10 -15 -9 -15 7 0 11
3 23 7 26 11 12 23 8 23 -7z m1150 -7 c0 -13 -8 -23 -20 -26 -13 -4 -19 -11
-16 -22 3 -9 2 -22 -3 -29 -6 -10 -10 -10 -21 3 -11 13 -8 22 15 55 31 44 45
50 45 19z m-1123 -45 c8 -22 -15 -43 -27 -24 -5 8 -10 21 -10 28 0 17 30 15
37 -4z m47 -49 c16 -12 17 -17 6 -31 -13 -14 -15 -14 -27 2 -14 20 -17 44 -5
44 4 0 16 -7 26 -15z m998 3 c7 -20 -21 -43 -34 -30 -8 8 -8 15 2 27 15 18 27
19 32 3z m-946 -70 c-3 -15 -2 -17 9 -8 10 8 19 8 34 0 26 -13 26 -22 1 -45
-18 -16 -20 -16 -20 -2 0 10 -7 17 -15 17 -20 0 -49 46 -41 66 9 23 39 -3 32
-28z m904 23 c11 -22 13 -38 3 -28 -3 4 -16 1 -29 -7 -12 -8 -24 -12 -28 -9
-12 12 -6 42 12 52 24 15 30 14 42 -8z m-61 -62 c14 -40 14 -46 -1 -31 -8 8
-17 8 -31 1 -30 -17 -44 4 -23 35 22 35 42 33 55 -5z m-745 -32 c14 -22 -8
-47 -25 -30 -6 6 -18 9 -25 6 -19 -7 -18 6 3 29 19 21 32 20 47 -5z m646 -2
c-11 -13 -10 -14 3 -9 10 3 20 -2 27 -16 13 -25 13 -25 -22 -34 -21 -5 -30 -2
-38 14 -6 11 -7 20 -2 20 6 0 12 9 15 20 3 11 11 20 17 20 10 0 10 -4 0 -15z
m-596 -50 c10 -26 7 -30 -24 -31 -33 -2 -34 -1 -20 27 13 23 36 25 44 4z m584
-50 c26 -41 28 -53 6 -34 -9 8 -22 14 -28 15 -6 0 -19 2 -28 2 -21 2 -23 23
-6 40 19 19 31 14 56 -23z m-534 -4 c11 -18 -5 -38 -39 -49 -41 -12 -42 -10
-13 28 22 30 42 38 52 21z m489 -45 c33 -43 33 -45 1 -42 -28 3 -60 48 -49 66
10 16 19 12 48 -24z m-463 -17 c0 -24 -17 -59 -29 -59 -18 0 -20 32 -5 56 20
29 34 31 34 3z m722 -185 l-4 -61 -54 -15 c-46 -13 -54 -13 -54 -1 0 9 -5 11
-12 7 -7 -5 18 24 56 64 38 39 70 71 71 69 0 -1 -1 -29 -3 -63z m-936 -28 c20
-30 42 -57 50 -60 8 -3 14 -10 14 -15 0 -6 -25 -9 -62 -6 -54 4 -62 7 -59 22
2 10 5 39 8 66 3 26 7 47 9 47 2 0 20 -24 40 -54z m888 -91 c-16 -22 -28 -53
-33 -86 -6 -51 -6 -51 -25 -31 -37 42 -16 120 39 142 41 17 46 10 19 -25z
m-854 -29 c19 -7 35 -17 35 -23 0 -10 -81 -103 -90 -103 -3 0 -5 11 -5 25 0
14 -9 43 -20 65 -11 22 -20 42 -20 45 0 9 64 4 100 -9z m268 -81 c52 -21 54
-32 5 -27 -40 4 -83 36 -83 60 0 13 2 13 18 -1 9 -8 36 -23 60 -32z m346 31
c-3 -7 -15 -18 -27 -24 -27 -13 -110 -32 -115 -27 -6 6 55 35 75 35 10 1 29 7
43 15 31 18 30 18 24 1z m-551 -77 c-1 -8 -7 -34 -13 -59 -6 -25 -9 -60 -6
-78 3 -19 1 -30 -5 -27 -5 4 -9 13 -9 21 0 7 -17 32 -37 55 -42 47 -39 62 18
91 37 20 55 18 52 -3z m742 11 c4 -6 -10 -29 -31 -52 l-37 -41 6 43 c5 41 19
60 44 60 6 0 15 -5 18 -10z m-500 -258 c0 -26 -4 -48 -10 -50 -13 -4 -27 66
-20 97 10 39 29 8 30 -47z m195 -7 c0 -67 -14 -87 -25 -36 -7 34 3 101 16 101
5 0 9 -29 9 -65z m-101 28 c2 32 21 7 21 -26 -1 -29 -2 -30 -14 -14 -14 18
-15 18 -25 0 -9 -15 -10 -14 -11 13 0 37 12 52 21 27 7 -17 8 -17 8 0z m-39
-17 c0 -24 -16 -43 -26 -33 -8 7 7 57 17 57 5 0 9 -11 9 -24z m92 -1 c6 -27 0
-38 -13 -29 -12 7 -12 54 0 54 5 0 11 -11 13 -25z m28 -191 c0 -14 -4 -22 -10
-19 -5 3 -10 17 -10 31 0 14 4 22 10 19 6 -3 10 -17 10 -31z m-160 -9 c0 -14
-4 -25 -10 -25 -11 0 -14 33 -3 43 11 11 13 8 13 -18z m38 0 c-3 -13 -1 -22 3
-19 5 3 9 14 9 25 0 21 19 27 21 7 0 -10 2 -10 6 0 2 6 9 10 14 6 12 -7 12
-54 -1 -54 -5 0 -10 4 -10 9 0 5 -14 3 -31 -6 -16 -8 -32 -13 -35 -11 -8 8 8
68 18 68 6 0 8 -11 6 -25z m92 -11 c0 -13 -4 -24 -10 -24 -5 0 -10 14 -10 31
0 17 4 28 10 24 6 -3 10 -17 10 -31z"/>
<path d="M460 1811 c0 -25 6 -27 13 -6 4 8 2 17 -3 20 -6 4 -10 -3 -10 -14z"/>
<path d="M373 1750 c-23 -35 -23 -35 -3 -49 11 -7 20 -19 20 -25 0 -7 14 -25
31 -42 17 -16 48 -60 69 -99 21 -38 57 -88 79 -110 23 -21 41 -45 41 -53 0 -7
5 -10 10 -7 6 3 10 -3 10 -14 0 -12 4 -21 8 -21 5 0 13 -17 19 -37 10 -35 11
-34 6 22 -12 158 -38 274 -40 174 -1 -51 -13 -76 -32 -65 -16 10 -22 86 -12
146 5 30 7 57 4 60 -10 10 -32 -34 -39 -76 -4 -26 -12 -44 -19 -44 -14 0 -20
28 -30 140 -8 85 -21 106 -27 45 -3 -26 -10 -51 -16 -57 -16 -16 -43 35 -51
94 l-6 53 -22 -35z"/>
<path d="M2626 1711 c-4 -6 -22 -11 -40 -11 -39 0 -58 -18 -60 -59 -1 -30 -51
-81 -73 -74 -6 2 -13 -6 -15 -19 -2 -15 -11 -24 -25 -26 -19 -3 -21 -6 -11
-21 9 -15 -1 -38 -57 -132 -120 -201 -132 -222 -187 -334 -77 -156 -78 -157
-110 -151 -32 6 -36 -1 -11 -19 16 -12 16 -17 -1 -81 -35 -137 -35 -137 36
-61 49 52 69 67 91 67 31 0 33 6 11 32 -16 17 -15 22 15 75 17 32 47 91 66
131 19 41 54 106 78 145 24 40 69 116 101 170 48 81 61 97 82 97 21 0 23 4 18
24 -3 13 -1 27 6 31 8 5 8 10 0 20 -8 10 -8 19 -1 34 6 11 11 29 11 40 0 11 6
24 13 28 7 4 21 21 31 37 13 20 21 25 29 17 6 -6 30 -11 52 -11 34 0 44 -5 55
-25 10 -19 11 -30 2 -50 -7 -14 -12 -35 -12 -45 0 -11 -11 -30 -25 -44 -14
-14 -25 -36 -25 -50 0 -16 -7 -27 -20 -31 -11 -4 -29 -23 -40 -44 -10 -21 -30
-45 -43 -54 -14 -9 -28 -28 -31 -43 -4 -15 -16 -39 -27 -52 -10 -14 -19 -35
-19 -47 0 -13 -7 -25 -15 -29 -17 -6 -21 -61 -5 -71 6 -3 10 -17 10 -31 0 -13
8 -32 19 -43 10 -10 21 -31 25 -46 6 -24 5 -27 -11 -20 -55 22 -65 17 -38 -19
23 -31 18 -42 -26 -55 -46 -14 -47 -35 -1 -39 44 -5 58 -24 42 -62 -16 -38
-12 -43 27 -28 38 14 57 2 61 -38 4 -48 13 -45 48 12 7 12 23 18 52 18 29 1
41 5 37 14 -2 6 0 12 5 12 6 0 10 -9 10 -20 0 -11 7 -20 15 -20 15 0 11 23 -8
47 -15 20 -1 41 38 57 37 16 47 36 17 36 -10 0 -26 6 -35 13 -16 11 -16 14 3
49 23 43 12 57 -25 32 -34 -22 -52 -12 -65 38 l-12 42 -28 -33 -27 -34 -26 19
c-15 10 -27 24 -27 30 0 6 -10 24 -22 39 -28 35 -26 102 3 123 10 7 19 24 19
37 0 15 10 31 25 41 14 9 29 30 33 48 5 17 18 36 29 41 36 18 53 37 53 57 0
11 14 33 30 48 18 17 30 38 30 53 0 14 5 27 12 29 8 3 12 26 13 64 0 48 -3 59
-15 57 -10 -2 -16 5 -16 17 0 22 12 27 19 8 3 -7 6 -3 6 8 1 17 -6 23 -34 28
-19 3 -50 9 -69 12 -20 3 -36 1 -40 -5z m48 -7 c20 -8 11 -24 -15 -24 -19 0
-25 11 -12 23 8 8 8 8 27 1z m-94 -41 c0 -5 -5 -15 -10 -23 -7 -11 -12 -12
-21 -3 -6 6 -8 16 -5 22 8 12 36 15 36 4z m-55 -93 c10 -16 -16 -43 -28 -31
-11 11 -2 41 12 41 5 0 13 -5 16 -10z m245 -4 c0 -16 -18 -31 -27 -22 -8 8 5
36 17 36 5 0 10 -6 10 -14z m-290 -33 c-1 -23 -13 -52 -21 -47 -5 3 -9 -4 -9
-14 0 -11 -7 -22 -15 -26 -20 -7 -19 7 5 54 18 35 40 53 40 33z m250 -57 c0
-18 -17 -29 -30 -21 -8 5 -7 11 1 21 15 18 29 18 29 0z m-320 -65 c0 -5 -7
-14 -15 -21 -16 -14 -18 -10 -9 14 6 17 24 22 24 7z m260 -31 c0 -12 -28 -25
-36 -17 -9 9 6 27 22 27 8 0 14 -5 14 -10z m-290 -24 c0 -3 -4 -8 -10 -11 -5
-3 -10 -1 -10 4 0 6 5 11 10 11 6 0 10 -2 10 -4z m-39 -69 c-16 -16 -26 0 -10
19 9 11 15 12 17 4 2 -6 -1 -17 -7 -23z m244 -8 c-4 -5 -13 -9 -22 -9 -13 0
-13 3 -3 15 13 15 35 11 25 -6z m-265 -23 c0 -15 -18 -31 -26 -23 -7 7 7 37
17 37 5 0 9 -6 9 -14z m-40 -61 c-7 -9 -15 -13 -18 -10 -3 2 1 11 8 20 7 9 15
13 18 10 3 -2 -1 -11 -8 -20z m250 0 c0 -8 -4 -15 -10 -15 -5 0 -10 7 -10 15
0 8 5 15 10 15 6 0 10 -7 10 -15z m-289 -68 c-8 -8 -11 -7 -11 4 0 20 13 34
18 19 3 -7 -1 -17 -7 -23z m257 -19 c-6 -18 -28 -21 -28 -4 0 9 7 16 16 16 9
0 14 -5 12 -12z m-282 -35 c-10 -10 -19 5 -10 18 6 11 8 11 12 0 2 -7 1 -15
-2 -18z m-16 -30 c0 -5 -4 -15 -10 -23 -11 -18 -25 -7 -17 15 6 15 27 21 27 8z
m328 -21 c2 -7 -3 -12 -12 -12 -9 0 -16 7 -16 16 0 17 22 14 28 -4z m-358 -40
c0 -5 -7 -17 -15 -28 -15 -19 -20 -8 -9 20 6 17 24 22 24 8z m480 -17 c0 -8
-4 -15 -10 -15 -5 0 -10 7 -10 15 0 8 5 15 10 15 6 0 10 -7 10 -15z m-75 -16
c-8 -12 -35 -12 -35 0 0 11 22 20 33 14 4 -2 5 -9 2 -14z m25 -31 c0 -19 2
-20 10 -8 8 12 10 10 10 -9 0 -21 -3 -23 -37 -16 -50 9 -52 13 -24 36 30 25
41 24 41 -3z m71 12 c26 -14 24 -25 -6 -38 -14 -7 -27 -12 -28 -12 -1 0 -3 14
-4 30 -2 32 6 36 38 20z m73 -15 c-6 -16 -24 -21 -24 -7 0 11 11 22 21 22 5 0
6 -7 3 -15z m-234 -5 c0 -5 -2 -10 -4 -10 -3 0 -8 5 -11 10 -3 6 -1 10 4 10 6
0 11 -4 11 -10z m-380 -18 c0 -5 -11 -19 -25 -32 -14 -13 -25 -35 -25 -49 0
-19 -3 -22 -11 -14 -9 9 -5 23 15 57 24 42 46 59 46 38z m435 -21 c3 -5 1 -12
-5 -16 -5 -3 -10 1 -10 9 0 18 6 21 15 7z m145 -1 c0 -5 -8 -10 -17 -10 -15 0
-16 2 -3 10 19 12 20 12 20 0z m-225 -30 c-3 -5 -13 -10 -21 -10 -8 0 -14 5
-14 10 0 6 9 10 21 10 11 0 17 -4 14 -10z m295 -4 c0 -2 -7 -6 -15 -10 -8 -3
-15 -1 -15 4 0 6 7 10 15 10 8 0 15 -2 15 -4z m-613 -22 c-3 -3 -12 -4 -19 -1
-8 3 -5 6 6 6 11 1 17 -2 13 -5z m423 -13 c0 -12 -20 -25 -27 -18 -7 7 6 27
18 27 5 0 9 -4 9 -9z m85 -12 c11 -17 -1 -21 -15 -4 -8 9 -8 15 -2 15 6 0 14
-5 17 -11z m-625 -59 c-6 -11 -12 -20 -14 -20 -2 0 -2 9 1 20 3 11 9 20 15 20
5 0 4 -9 -2 -20z m551 -33 c-8 -8 -11 -7 -11 4 0 20 13 34 18 19 3 -7 -1 -17
-7 -23z"/>
<path d="M310 1655 c0 -3 9 -24 21 -46 11 -22 29 -74 39 -115 24 -93 31 -105
83 -148 40 -33 87 -106 87 -136 0 -24 41 -79 74 -99 24 -15 47 -48 84 -121
l51 -100 -27 -32 c-15 -18 -30 -34 -33 -36 -20 -9 -38 -30 -44 -49 -11 -38 26
-28 78 22 27 25 55 45 63 45 19 0 58 -43 127 -137 40 -55 62 -75 95 -88 24 -9
46 -15 49 -12 12 12 -49 121 -116 207 -39 51 -71 98 -71 105 0 17 57 65 76 65
13 0 15 5 18 43 1 18 -46 9 -64 -13 -8 -9 -27 -25 -41 -34 -24 -15 -26 -15
-45 6 -11 13 -35 53 -52 90 -23 46 -48 79 -82 108 -38 32 -54 55 -71 101 -16
43 -36 73 -76 111 -36 35 -60 70 -73 105 -22 59 -41 93 -52 93 -5 0 -4 -8 2
-17 5 -10 19 -43 30 -74 15 -41 35 -70 78 -111 45 -43 62 -66 72 -104 10 -37
29 -65 76 -114 34 -36 77 -94 95 -130 44 -84 44 -84 30 -76 -6 4 -25 35 -42
69 -17 34 -57 89 -89 122 -41 42 -65 77 -80 116 -14 40 -38 74 -79 115 -41 42
-64 76 -80 118 -12 32 -31 70 -41 84 -11 13 -17 29 -14 34 3 5 -2 16 -12 23
-19 14 -44 20 -44 10z m110 -199 c0 -6 18 -31 41 -55 43 -44 50 -62 12 -32
-38 32 -95 126 -63 106 6 -3 10 -12 10 -19z m160 -230 c0 -8 29 -44 64 -80 35
-36 66 -76 69 -88 5 -20 3 -19 -16 6 -12 16 -40 47 -63 70 -44 44 -81 106 -64
106 5 0 10 -6 10 -14z m350 -218 c0 -14 -78 -73 -85 -66 -3 2 13 18 35 34 22
16 40 32 40 37 0 4 2 7 5 7 3 0 5 -6 5 -12z m-180 -41 c0 -5 -4 -5 -10 -2 -5
3 -10 14 -10 23 0 15 2 15 10 2 5 -8 10 -19 10 -23z m81 -79 c-13 -10 -27 -18
-31 -18 -14 0 -32 29 -24 41 5 9 10 5 16 -11 8 -22 10 -22 25 -7 13 12 14 19
5 30 -7 8 -9 17 -5 20 3 4 13 -3 21 -15 14 -19 13 -23 -7 -40z m-103 -63 c-26
-25 -53 -45 -60 -45 -14 0 82 89 97 89 6 0 -11 -20 -37 -44z m162 15 c0 -5 -4
-10 -10 -10 -5 0 -10 5 -10 10 0 6 5 10 10 10 6 0 10 -4 10 -10z m20 -30 c0
-5 -2 -10 -4 -10 -3 0 -8 5 -11 10 -3 6 -1 10 4 10 6 0 11 -4 11 -10z m30 -30
c0 -5 -4 -10 -10 -10 -5 0 -10 5 -10 10 0 6 5 10 10 10 6 0 10 -4 10 -10z m80
-136 c0 -8 -4 -12 -10 -9 -5 3 -10 13 -10 21 0 8 5 12 10 9 6 -3 10 -13 10
-21z"/>
<path d="M640 1604 c0 -14 4 -23 10 -19 6 3 10 15 10 26 0 10 -4 19 -10 19 -5
0 -10 -12 -10 -26z"/>
<path d="M731 1515 c0 -35 2 -37 11 -19 7 15 7 28 -1 40 -9 16 -10 12 -10 -21z"/>
<path d="M706 1368 c-9 -56 -6 -148 6 -145 6 1 17 -9 24 -23 7 -13 19 -29 27
-35 12 -9 24 -31 53 -100 6 -14 10 2 12 54 4 93 -4 117 -24 79 -8 -16 -16 -28
-18 -28 -1 0 -16 52 -31 115 -16 63 -32 115 -36 115 -4 0 -9 -15 -13 -32z"/>
<path d="M812 1353 c-8 -17 -12 -42 -10 -55 l3 -23 13 23 c7 13 12 37 10 55
l-3 32 -13 -32z"/>
</g>
</svg>
